<mxfile>
    <diagram id="_czh4SuTjVle5rjB2MPy" name="Page-1">
        <mxGraphModel dx="3161" dy="531" grid="1" gridSize="10" guides="1" tooltips="1" connect="1" arrows="1" fold="1" page="1" pageScale="1" pageWidth="2339" pageHeight="3300" math="0" shadow="0">
            <root>
                <mxCell id="0"/>
                <mxCell id="1" parent="0"/>
                <mxCell id="8" style="edgeStyle=orthogonalEdgeStyle;rounded=0;orthogonalLoop=1;jettySize=auto;html=1;exitX=0.5;exitY=1;exitDx=0;exitDy=0;entryX=0.5;entryY=0;entryDx=0;entryDy=0;fontColor=#F0F0F0;strokeColor=#F0F0F0;" parent="1" source="2" target="3" edge="1">
                    <mxGeometry relative="1" as="geometry"/>
                </mxCell>
                <mxCell id="2" value="Start" style="rounded=1;whiteSpace=wrap;html=1;sketch=0;strokeWidth=3;strokeColor=#9933FF;glass=0;fontColor=#F0F0F0;fillColor=none;" parent="1" vertex="1">
                    <mxGeometry x="70" y="80" width="60" height="20" as="geometry"/>
                </mxCell>
                <mxCell id="9" style="edgeStyle=orthogonalEdgeStyle;rounded=0;orthogonalLoop=1;jettySize=auto;html=1;exitX=0.5;exitY=1;exitDx=0;exitDy=0;entryX=0.5;entryY=0;entryDx=0;entryDy=0;fontColor=#F0F0F0;strokeColor=#F0F0F0;" parent="1" source="3" target="4" edge="1">
                    <mxGeometry relative="1" as="geometry"/>
                </mxCell>
                <mxCell id="3" value="1st meeting - 10:00" style="rounded=0;whiteSpace=wrap;html=1;glass=0;sketch=0;strokeColor=#9933FF;strokeWidth=3;fillColor=none;fontColor=#F0F0F0;" parent="1" vertex="1">
                    <mxGeometry x="22.5" y="120" width="155" height="40" as="geometry"/>
                </mxCell>
                <mxCell id="61" style="edgeStyle=orthogonalEdgeStyle;rounded=0;orthogonalLoop=1;jettySize=auto;html=1;exitX=0.5;exitY=1;exitDx=0;exitDy=0;entryX=0.5;entryY=0;entryDx=0;entryDy=0;strokeColor=#F0F0F0;" parent="1" source="4" target="10" edge="1">
                    <mxGeometry relative="1" as="geometry"/>
                </mxCell>
                <mxCell id="4" value="&lt;span&gt;- agreeing on Project C&lt;/span&gt;&lt;br&gt;&lt;span&gt;- choosing our leader&lt;/span&gt;&lt;br&gt;&lt;span&gt;- task for everyone: come up with 2&lt;br&gt;examples&amp;nbsp;&lt;/span&gt;&lt;span style=&quot;text-align: left&quot;&gt;of photography&lt;br&gt;websites&lt;/span&gt;" style="rhombus;whiteSpace=wrap;html=1;rounded=0;glass=0;sketch=0;strokeColor=#9933FF;strokeWidth=3;fillColor=none;fontColor=#F0F0F0;" parent="1" vertex="1">
                    <mxGeometry x="-22.5" y="180" width="245" height="140" as="geometry"/>
                </mxCell>
                <mxCell id="16" style="edgeStyle=orthogonalEdgeStyle;rounded=0;orthogonalLoop=1;jettySize=auto;html=1;exitX=0.5;exitY=1;exitDx=0;exitDy=0;entryX=0.5;entryY=0;entryDx=0;entryDy=0;fontColor=#F0F0F0;strokeColor=#F0F0F0;" parent="1" source="10" target="15" edge="1">
                    <mxGeometry relative="1" as="geometry"/>
                </mxCell>
                <mxCell id="10" value="2nd meeting - 11:30" style="rounded=0;whiteSpace=wrap;html=1;glass=0;sketch=0;strokeColor=#9933FF;strokeWidth=3;fillColor=none;fontColor=#F0F0F0;" parent="1" vertex="1">
                    <mxGeometry x="22.5" y="350" width="155" height="40" as="geometry"/>
                </mxCell>
                <mxCell id="11" value="&lt;font style=&quot;font-size: 24px&quot;&gt;DAY 1&lt;/font&gt;" style="text;html=1;align=center;verticalAlign=middle;resizable=0;points=[];autosize=1;fontColor=#F0F0F0;" parent="1" vertex="1">
                    <mxGeometry x="60" y="30" width="80" height="20" as="geometry"/>
                </mxCell>
                <mxCell id="63" style="edgeStyle=orthogonalEdgeStyle;rounded=1;orthogonalLoop=1;jettySize=auto;html=1;exitX=0.5;exitY=1;exitDx=0;exitDy=0;entryX=0.5;entryY=0;entryDx=0;entryDy=0;strokeColor=#F0F0F0;" parent="1" source="15" target="17" edge="1">
                    <mxGeometry relative="1" as="geometry"/>
                </mxCell>
                <mxCell id="15" value="&lt;span&gt;- choosing a&lt;br&gt;template we want to follow&lt;br&gt;in general&lt;br&gt;&lt;/span&gt;" style="rhombus;whiteSpace=wrap;html=1;rounded=0;glass=0;sketch=0;strokeColor=#9933FF;strokeWidth=3;fillColor=none;fontColor=#F0F0F0;" parent="1" vertex="1">
                    <mxGeometry x="-22.5" y="430" width="245" height="70" as="geometry"/>
                </mxCell>
                <mxCell id="28" style="edgeStyle=orthogonalEdgeStyle;rounded=0;orthogonalLoop=1;jettySize=auto;html=1;exitX=0.5;exitY=1;exitDx=0;exitDy=0;entryX=0.5;entryY=0;entryDx=0;entryDy=0;fontColor=#F0F0F0;strokeColor=#F0F0F0;" parent="1" source="17" target="27" edge="1">
                    <mxGeometry relative="1" as="geometry"/>
                </mxCell>
                <mxCell id="17" value="Tasks:&lt;br&gt;Navbar/Landing: Freddy&lt;br&gt;Portfolio/About: Marko&lt;br&gt;Customers/Contact: Natalia&lt;br&gt;Testimonials/Media: Gregor&lt;br&gt;&lt;br&gt;" style="rhombus;whiteSpace=wrap;html=1;rounded=0;glass=0;sketch=0;strokeColor=#9933FF;strokeWidth=3;fillColor=none;fontColor=#F0F0F0;" parent="1" vertex="1">
                    <mxGeometry x="-22.5" y="535" width="245" height="140" as="geometry"/>
                </mxCell>
                <mxCell id="33" style="edgeStyle=orthogonalEdgeStyle;orthogonalLoop=1;jettySize=auto;html=1;exitX=0.5;exitY=1;exitDx=0;exitDy=0;entryX=0;entryY=0.5;entryDx=0;entryDy=0;fontColor=#F0F0F0;rounded=1;strokeColor=#FFFFFF;" parent="1" source="19" target="24" edge="1">
                    <mxGeometry relative="1" as="geometry"/>
                </mxCell>
                <mxCell id="19" value="3rd meeting - 16:00&lt;br&gt;- Status updates&lt;br&gt;- Solving angular problems" style="rounded=0;whiteSpace=wrap;html=1;glass=0;sketch=0;strokeColor=#9933FF;strokeWidth=3;fillColor=none;fontColor=#F0F0F0;" parent="1" vertex="1">
                    <mxGeometry x="22.5" y="810" width="155" height="60" as="geometry"/>
                </mxCell>
                <mxCell id="51" style="edgeStyle=orthogonalEdgeStyle;rounded=0;orthogonalLoop=1;jettySize=auto;html=1;exitX=0.5;exitY=1;exitDx=0;exitDy=0;entryX=0.5;entryY=0;entryDx=0;entryDy=0;fontColor=#F0F0F0;strokeColor=#F0F0F0;" parent="1" source="24" target="30" edge="1">
                    <mxGeometry relative="1" as="geometry"/>
                </mxCell>
                <mxCell id="24" value="1st meeting - 09:00&lt;br&gt;- Status updates&lt;br&gt;- Trello update" style="rounded=0;whiteSpace=wrap;html=1;glass=0;sketch=0;strokeColor=#9933FF;strokeWidth=3;fillColor=none;fontColor=#F0F0F0;" parent="1" vertex="1">
                    <mxGeometry x="365" y="120" width="155" height="70" as="geometry"/>
                </mxCell>
                <mxCell id="29" style="edgeStyle=orthogonalEdgeStyle;rounded=0;orthogonalLoop=1;jettySize=auto;html=1;exitX=0.5;exitY=1;exitDx=0;exitDy=0;entryX=0.5;entryY=0;entryDx=0;entryDy=0;fontColor=#F0F0F0;strokeColor=#F0F0F0;" parent="1" source="27" target="19" edge="1">
                    <mxGeometry relative="1" as="geometry"/>
                </mxCell>
                <mxCell id="27" value="coding, helping each&lt;br&gt;other when questions&lt;br&gt;arise in slack/zoom" style="rounded=0;whiteSpace=wrap;html=1;glass=0;sketch=0;strokeColor=#9933FF;strokeWidth=3;fillColor=none;fontColor=#F0F0F0;" parent="1" vertex="1">
                    <mxGeometry x="15" y="710" width="170" height="60" as="geometry"/>
                </mxCell>
                <mxCell id="35" style="edgeStyle=orthogonalEdgeStyle;rounded=0;orthogonalLoop=1;jettySize=auto;html=1;exitX=0.5;exitY=1;exitDx=0;exitDy=0;entryX=0.5;entryY=0;entryDx=0;entryDy=0;fontColor=#F0F0F0;strokeColor=#F0F0F0;" parent="1" source="30" target="34" edge="1">
                    <mxGeometry relative="1" as="geometry"/>
                </mxCell>
                <mxCell id="30" value="- focus on functionality&lt;br&gt;- styling will be done at&lt;br&gt;the end" style="rhombus;whiteSpace=wrap;html=1;rounded=0;glass=0;sketch=0;strokeColor=#9933FF;strokeWidth=3;fillColor=none;fontColor=#F0F0F0;" parent="1" vertex="1">
                    <mxGeometry x="332.5" y="270" width="220" height="90" as="geometry"/>
                </mxCell>
                <mxCell id="32" value="&lt;font style=&quot;font-size: 24px&quot;&gt;DAY 2&lt;br&gt;&lt;/font&gt;" style="text;html=1;align=center;verticalAlign=middle;resizable=0;points=[];autosize=1;fontColor=#F0F0F0;" parent="1" vertex="1">
                    <mxGeometry x="402.5" y="30" width="80" height="20" as="geometry"/>
                </mxCell>
                <mxCell id="40" style="edgeStyle=orthogonalEdgeStyle;rounded=0;orthogonalLoop=1;jettySize=auto;html=1;exitX=0.5;exitY=1;exitDx=0;exitDy=0;entryX=0.5;entryY=0;entryDx=0;entryDy=0;fontColor=#F0F0F0;strokeColor=#F0F0F0;" parent="1" source="34" target="39" edge="1">
                    <mxGeometry relative="1" as="geometry"/>
                </mxCell>
                <mxCell id="34" value="coding, helping each&lt;br&gt;other when questions&lt;br&gt;arise in slack/zoom" style="rounded=0;whiteSpace=wrap;html=1;glass=0;sketch=0;strokeColor=#9933FF;strokeWidth=3;fillColor=none;fontColor=#F0F0F0;" parent="1" vertex="1">
                    <mxGeometry x="357.5" y="440" width="170" height="60" as="geometry"/>
                </mxCell>
                <mxCell id="49" style="edgeStyle=orthogonalEdgeStyle;rounded=1;orthogonalLoop=1;jettySize=auto;html=1;exitX=0.5;exitY=1;exitDx=0;exitDy=0;entryX=0;entryY=0.5;entryDx=0;entryDy=0;fontColor=#F0F0F0;strokeColor=#F0F0F0;" parent="1" source="36" target="43" edge="1">
                    <mxGeometry relative="1" as="geometry"/>
                </mxCell>
                <mxCell id="36" value="2nd meeting - 15:00&lt;br&gt;- Status updates&lt;br&gt;- solving css/hover-issues" style="rounded=0;whiteSpace=wrap;html=1;glass=0;sketch=0;strokeColor=#9933FF;strokeWidth=3;fillColor=none;fontColor=#F0F0F0;" parent="1" vertex="1">
                    <mxGeometry x="365" y="710" width="155" height="60" as="geometry"/>
                </mxCell>
                <mxCell id="41" style="edgeStyle=orthogonalEdgeStyle;rounded=0;orthogonalLoop=1;jettySize=auto;html=1;exitX=0.5;exitY=1;exitDx=0;exitDy=0;entryX=0.5;entryY=0;entryDx=0;entryDy=0;fontColor=#F0F0F0;strokeColor=#F0F0F0;" parent="1" source="39" target="36" edge="1">
                    <mxGeometry relative="1" as="geometry"/>
                </mxCell>
                <mxCell id="39" value="agreement on&lt;br&gt;installing materials/angular" style="rhombus;whiteSpace=wrap;html=1;rounded=0;glass=0;sketch=0;strokeColor=#9933FF;strokeWidth=3;fillColor=none;fontColor=#F0F0F0;" parent="1" vertex="1">
                    <mxGeometry x="320" y="560" width="245" height="90" as="geometry"/>
                </mxCell>
                <mxCell id="42" value="&lt;font style=&quot;font-size: 24px&quot;&gt;DAY 3&lt;br&gt;&lt;/font&gt;" style="text;html=1;align=center;verticalAlign=middle;resizable=0;points=[];autosize=1;fontColor=#F0F0F0;" parent="1" vertex="1">
                    <mxGeometry x="720" y="30" width="80" height="20" as="geometry"/>
                </mxCell>
                <mxCell id="56" style="edgeStyle=orthogonalEdgeStyle;rounded=0;orthogonalLoop=1;jettySize=auto;html=1;exitX=0.5;exitY=1;exitDx=0;exitDy=0;entryX=0.5;entryY=0;entryDx=0;entryDy=0;fontColor=#F0F0F0;strokeColor=#F0F0F0;" parent="1" source="43" target="53" edge="1">
                    <mxGeometry relative="1" as="geometry"/>
                </mxCell>
                <mxCell id="43" value="1st meeting - 09:00&lt;br&gt;- Status updates&lt;br&gt;- Trello update" style="rounded=0;whiteSpace=wrap;html=1;glass=0;sketch=0;strokeColor=#9933FF;strokeWidth=3;fillColor=none;fontColor=#F0F0F0;" parent="1" vertex="1">
                    <mxGeometry x="682.5" y="120" width="155" height="70" as="geometry"/>
                </mxCell>
                <mxCell id="58" style="edgeStyle=orthogonalEdgeStyle;rounded=0;orthogonalLoop=1;jettySize=auto;html=1;exitX=0.5;exitY=1;exitDx=0;exitDy=0;entryX=0.5;entryY=0;entryDx=0;entryDy=0;fontColor=#F0F0F0;strokeColor=#F0F0F0;" parent="1" source="53" target="57" edge="1">
                    <mxGeometry relative="1" as="geometry"/>
                </mxCell>
                <mxCell id="53" value="Tasks:&lt;br&gt;Website: Freddy/Marko&lt;br&gt;Documentation:&lt;br&gt;Natalia/Gregor" style="rhombus;whiteSpace=wrap;html=1;rounded=0;glass=0;sketch=0;strokeColor=#9933FF;strokeWidth=3;fillColor=none;fontColor=#F0F0F0;" parent="1" vertex="1">
                    <mxGeometry x="637.5" y="250" width="245" height="130" as="geometry"/>
                </mxCell>
                <mxCell id="60" style="edgeStyle=orthogonalEdgeStyle;rounded=0;orthogonalLoop=1;jettySize=auto;html=1;exitX=0.5;exitY=1;exitDx=0;exitDy=0;entryX=0.5;entryY=0;entryDx=0;entryDy=0;fontColor=#F0F0F0;strokeColor=#F0F0F0;" parent="1" source="57" target="59" edge="1">
                    <mxGeometry relative="1" as="geometry"/>
                </mxCell>
                <mxCell id="57" value="coding, helping each&lt;br&gt;other when questions&lt;br&gt;arise in slack/zoom" style="rounded=0;whiteSpace=wrap;html=1;glass=0;sketch=0;strokeColor=#9933FF;strokeWidth=3;fillColor=none;fontColor=#F0F0F0;" parent="1" vertex="1">
                    <mxGeometry x="675" y="410" width="170" height="60" as="geometry"/>
                </mxCell>
                <mxCell id="74" style="edgeStyle=orthogonalEdgeStyle;rounded=0;orthogonalLoop=1;jettySize=auto;html=1;exitX=0.5;exitY=1;exitDx=0;exitDy=0;entryX=0.5;entryY=0;entryDx=0;entryDy=0;strokeColor=#F0F0F0;" parent="1" source="59" target="72" edge="1">
                    <mxGeometry relative="1" as="geometry"/>
                </mxCell>
                <mxCell id="59" value="documentation, helping each&lt;br&gt;other when questions&lt;br&gt;arise in slack/zoom" style="rounded=0;whiteSpace=wrap;html=1;glass=0;sketch=0;strokeColor=#9933FF;strokeWidth=3;fillColor=none;fontColor=#F0F0F0;" parent="1" vertex="1">
                    <mxGeometry x="675" y="500" width="170" height="60" as="geometry"/>
                </mxCell>
                <mxCell id="64" value="&lt;font style=&quot;font-size: 24px&quot;&gt;DAY 4&lt;br&gt;&lt;/font&gt;" style="text;html=1;align=center;verticalAlign=middle;resizable=0;points=[];autosize=1;fontColor=#F0F0F0;" parent="1" vertex="1">
                    <mxGeometry x="1050" y="30" width="80" height="20" as="geometry"/>
                </mxCell>
                <mxCell id="67" style="edgeStyle=orthogonalEdgeStyle;rounded=0;orthogonalLoop=1;jettySize=auto;html=1;exitX=0.5;exitY=1;exitDx=0;exitDy=0;entryX=0.5;entryY=0;entryDx=0;entryDy=0;strokeColor=#F0F0F0;" parent="1" source="65" target="66" edge="1">
                    <mxGeometry relative="1" as="geometry"/>
                </mxCell>
                <mxCell id="65" value="meeting - 09:00&lt;br&gt;- Status updates&lt;br&gt;- Trello update" style="rounded=0;whiteSpace=wrap;html=1;glass=0;sketch=0;strokeColor=#9933FF;strokeWidth=3;fillColor=none;fontColor=#F0F0F0;" parent="1" vertex="1">
                    <mxGeometry x="1015" y="120" width="155" height="70" as="geometry"/>
                </mxCell>
                <mxCell id="71" style="edgeStyle=orthogonalEdgeStyle;rounded=0;orthogonalLoop=1;jettySize=auto;html=1;exitX=0.5;exitY=1;exitDx=0;exitDy=0;entryX=0.5;entryY=0;entryDx=0;entryDy=0;strokeColor=#F0F0F0;" parent="1" source="66" target="70" edge="1">
                    <mxGeometry relative="1" as="geometry"/>
                </mxCell>
                <mxCell id="66" value="- choosing final Font&lt;br&gt;- Presentation" style="rhombus;whiteSpace=wrap;html=1;rounded=0;glass=0;sketch=0;strokeColor=#9933FF;strokeWidth=3;fillColor=none;fontColor=#F0F0F0;" parent="1" vertex="1">
                    <mxGeometry x="970" y="270" width="245" height="90" as="geometry"/>
                </mxCell>
                <mxCell id="82" style="edgeStyle=orthogonalEdgeStyle;rounded=1;orthogonalLoop=1;jettySize=auto;html=1;exitX=0.5;exitY=1;exitDx=0;exitDy=0;entryX=0.5;entryY=0;entryDx=0;entryDy=0;strokeColor=#F0F0F0;" parent="1" source="70" target="81" edge="1">
                    <mxGeometry relative="1" as="geometry"/>
                </mxCell>
                <mxCell id="70" value="14:00&lt;br&gt;Presentation" style="rounded=0;whiteSpace=wrap;html=1;glass=0;sketch=0;strokeColor=#9933FF;strokeWidth=3;fillColor=none;fontColor=#F0F0F0;" parent="1" vertex="1">
                    <mxGeometry x="1015" y="410" width="155" height="60" as="geometry"/>
                </mxCell>
                <mxCell id="76" style="edgeStyle=orthogonalEdgeStyle;rounded=0;orthogonalLoop=1;jettySize=auto;html=1;exitX=0.5;exitY=1;exitDx=0;exitDy=0;entryX=0.5;entryY=0;entryDx=0;entryDy=0;strokeColor=#F0F0F0;" parent="1" source="72" target="75" edge="1">
                    <mxGeometry relative="1" as="geometry"/>
                </mxCell>
                <mxCell id="72" value="2nd meeting - 15:00&lt;br&gt;- Status updates&lt;br&gt;- finish the whole website" style="rounded=0;whiteSpace=wrap;html=1;glass=0;sketch=0;strokeColor=#9933FF;strokeWidth=3;fillColor=none;fontColor=#F0F0F0;" parent="1" vertex="1">
                    <mxGeometry x="682.5" y="590" width="155" height="60" as="geometry"/>
                </mxCell>
                <mxCell id="80" style="edgeStyle=orthogonalEdgeStyle;rounded=1;orthogonalLoop=1;jettySize=auto;html=1;exitX=0.5;exitY=1;exitDx=0;exitDy=0;entryX=0;entryY=0.5;entryDx=0;entryDy=0;strokeColor=#F0F0F0;" parent="1" source="75" target="65" edge="1">
                    <mxGeometry relative="1" as="geometry"/>
                </mxCell>
                <mxCell id="75" value="decisions&lt;br&gt;on styling: dark/light,&lt;br&gt;shadows, headings,&lt;br&gt;font-size/-weight,&lt;br&gt;buttons" style="rhombus;whiteSpace=wrap;html=1;rounded=0;glass=0;sketch=0;strokeColor=#9933FF;strokeWidth=3;fillColor=none;fontColor=#F0F0F0;" parent="1" vertex="1">
                    <mxGeometry x="648.75" y="690" width="222.5" height="110" as="geometry"/>
                </mxCell>
                <mxCell id="81" value="Happy End" style="rounded=1;whiteSpace=wrap;html=1;sketch=0;strokeWidth=3;strokeColor=#9933FF;glass=0;fontColor=#F0F0F0;fillColor=none;" parent="1" vertex="1">
                    <mxGeometry x="1058.75" y="510" width="67.5" height="20" as="geometry"/>
                </mxCell>
            </root>
        </mxGraphModel>
    </diagram>
</mxfile>